<svg width="92" height="92" viewBox="0 0 92 92" fill="none" xmlns="http://www.w3.org/2000/svg">
<rect width="92" height="92" fill="#1E1E1E"/>
<g id="Frame 70">
<g id="1">
<rect width="1920" height="792" transform="translate(-364 -18)" fill="#0C0B0E"/>
<g id="Group">
<g id="Group_2">
<path id="Vector" d="M69 69C81.7025 56.2974 81.7025 35.7025 69 23C56.2975 10.2974 35.7025 10.2975 23 23C10.2975 35.7025 10.2974 56.2974 23 69C35.7025 81.7025 56.2974 81.7025 69 69Z" fill="#EAFC52"/>
</g>
<g id="Group 87">
<g id="Group_3">
<g id="Group_4">
<path id="Vector_2" d="M63.6011 68.0747L62.554 66.8913L58.8401 62.6885L46.5758 68.6161L46.4289 75.3662L46.4226 75.6138C47.8452 75.5802 49.2637 75.3788 50.6485 75.0053C55.8102 74.1848 60.5229 72.0194 64.4173 68.8804L63.6346 68.0453L63.6011 68.0747Z" fill="black"/>
<path id="Vector_3" d="M34.1758 61.5392L45.391 66.9611L45.263 61.0671L37.0504 58.2869L34.1758 61.5392Z" fill="black"/>
<path id="Vector_4" d="M46.6099 66.959L57.8251 61.5392L54.9483 58.2869L46.7379 61.0671L46.6099 66.959Z" fill="black"/>
<path id="Vector_5" d="M54.6762 53.2206L54.651 53.2499C53.9187 54.085 52.9724 54.7061 51.9149 55.0481L46.835 56.689L46.7742 59.5006L54.7538 56.7981L68.1638 41.2919C67.5742 40.7695 67.1105 40.1232 66.8083 39.3972L54.6762 53.2206Z" fill="black"/>
<path id="Vector_6" d="M35.8446 57.4261L22.636 42.1528L22.1303 42.4865C20.3909 43.6321 18.8403 45.0442 17.5414 46.6725L16.6812 47.751C16.7147 48.3154 16.763 48.8778 16.828 49.4338C17.682 56.7525 21.2239 63.2508 26.4444 67.9111L28.4146 65.8338L35.8446 57.4261Z" fill="black"/>
<path id="Vector_7" d="M74.4599 46.6725C73.1589 45.0442 71.6104 43.6321 69.871 42.4865L69.3653 42.1528L56.1567 57.4261L63.5867 65.8338L65.5423 67.9216C70.769 63.2592 74.3172 56.7567 75.1712 49.4317C75.2362 48.8757 75.2845 48.3154 75.318 47.7489L74.4599 46.6725Z" fill="black"/>
<path id="Vector_8" d="M45.4312 68.6161L33.1648 62.6885L29.4508 66.8913L28.4038 68.0747L28.3597 68.0369L27.5708 68.8658C31.4694 72.011 36.1883 74.1827 41.3564 75.0032C42.7412 75.3767 44.1596 75.5781 45.5823 75.6117L45.576 75.3641L45.4312 68.6161Z" fill="black"/>
<path id="Vector_9" d="M45.2313 59.5006L45.1705 56.689L40.1829 55.0775L40.0906 55.0481C39.0331 54.7061 38.0888 54.085 37.3544 53.2499L37.2915 53.1765L25.1992 39.3972C24.8971 40.1232 24.4334 40.7695 23.8438 41.2898L37.2537 56.796L45.2313 59.5006Z" fill="black"/>
<path id="Vector_10" d="M53.8108 51.971L66.3227 37.7134C65.8842 36.1187 65.1834 34.6079 64.2476 33.242L63.8027 32.5936C63.3159 31.8508 63.0243 30.9989 62.955 30.1156L62.8564 28.8566C62.6529 26.2464 62.2374 23.6571 61.6142 21.1161C61.5177 20.7216 61.417 20.3272 61.31 19.9327L60.7686 17.9415C60.6364 17.4589 60.4602 16.9909 60.2441 16.544C59.8811 15.797 59.4006 15.1088 58.8214 14.5066C55.802 11.3718 52.2182 8.83501 48.2588 7.0305L47.6293 6.74514C47.1509 6.52692 46.6389 6.41571 46.127 6.39893L46.3704 13.4722L46.4795 16.63L46.8236 26.6996C47.0796 26.666 47.3356 26.6157 47.5853 26.5485L53.6304 24.9412C54.008 24.8405 54.3941 24.7902 54.7823 24.7902C56.8659 24.7902 58.6557 26.2086 59.1341 28.2376L60.3385 33.3469C60.6658 34.7338 60.4917 36.19 59.8475 37.4469C57.8646 41.3203 55.1369 44.6649 51.7419 47.3863C51.0474 47.9424 50.2522 48.3704 49.3772 48.6558L48.0364 49.0922C47.3797 49.3062 46.6956 49.4153 46.0032 49.4153C45.3129 49.4153 44.6288 49.3062 43.97 49.0922L42.6292 48.6558C41.75 48.3704 40.9401 47.9298 40.2204 47.3507C36.8422 44.6313 34.127 41.293 32.1526 37.4322C31.5147 36.1858 31.3427 34.7338 31.67 33.349L32.8744 28.2397C33.3528 26.2107 35.1426 24.7923 37.2262 24.7923C37.6144 24.7923 38.0004 24.8426 38.3781 24.9433L44.4232 26.5506C44.675 26.6178 44.9289 26.6681 45.1849 26.7017L45.529 16.6321L45.636 13.4827L45.8794 6.40102C45.3653 6.41781 44.8533 6.52902 44.3749 6.74724C40.2099 8.64406 36.4183 11.2732 33.1828 14.5087C32.4484 15.2431 31.8819 16.1244 31.5105 17.0896C31.4203 17.3225 31.3385 17.5596 31.2734 17.803L30.6922 19.9369C30.5852 20.3293 30.4845 20.7237 30.388 21.1182C29.7648 23.6592 29.3493 26.2485 29.1458 28.8587L29.0472 30.1177C28.9779 31.0031 28.6863 31.855 28.1995 32.5957L27.7546 33.2441C26.8188 34.61 26.1201 36.1208 25.6794 37.7155L38.1914 51.9731C38.9237 52.8082 39.87 53.4293 40.9275 53.7713L46.0011 55.4101L51.0747 53.7713C52.1322 53.4272 53.0785 52.8061 53.8108 51.971Z" fill="black"/>
<path id="Vector_11" d="M44.5277 28.086C44.3661 28.0545 44.2046 28.0167 44.043 27.9748L37.9979 26.3675C37.9077 26.3423 37.8154 26.3255 37.7252 26.3088C37.7042 26.3046 37.6853 26.3025 37.6643 26.2983C37.5762 26.2857 37.4859 26.2752 37.3978 26.271C37.3852 26.271 37.3706 26.271 37.358 26.2689C37.3139 26.2668 37.2698 26.2647 37.2258 26.2647C37.1985 26.2647 37.1712 26.2668 37.1418 26.2689C37.1062 26.2689 37.0705 26.271 37.0369 26.2731C36.9761 26.2773 36.9152 26.2836 36.8544 26.292C36.8229 26.2962 36.7914 26.2983 36.76 26.3046C36.6865 26.3172 36.6152 26.3318 36.5417 26.3486C36.525 26.3528 36.5061 26.3549 36.4893 26.3591C36.4012 26.3822 36.313 26.4095 36.227 26.4388C36.2039 26.4472 36.1829 26.4556 36.1619 26.464C36.099 26.4892 36.036 26.5144 35.9752 26.5417C35.9458 26.5543 35.9186 26.5689 35.8892 26.5836C35.8367 26.6109 35.7822 26.6382 35.7318 26.6676C35.7024 26.6843 35.6731 26.7011 35.6458 26.72C35.5954 26.7515 35.5472 26.7851 35.4968 26.8186C35.4695 26.8375 35.4444 26.8564 35.4171 26.8753C35.3646 26.9152 35.3122 26.9592 35.2618 27.0012C35.2429 27.018 35.224 27.0327 35.2051 27.0494C35.138 27.1103 35.0729 27.1753 35.01 27.2425C34.9995 27.2551 34.989 27.2677 34.9785 27.2803C34.9282 27.3369 34.8799 27.3957 34.8338 27.4544C34.8149 27.4796 34.7981 27.5048 34.7792 27.532C34.7435 27.5824 34.71 27.6328 34.6764 27.6852C34.6575 27.7146 34.6407 27.7461 34.6239 27.7754C34.5946 27.8279 34.5652 27.8804 34.54 27.9349C34.5253 27.9664 34.5085 27.9979 34.4938 28.0293C34.4666 28.0881 34.4435 28.1489 34.4204 28.2098C34.4099 28.2392 34.3973 28.2664 34.3868 28.2958C34.3553 28.386 34.3281 28.4805 34.305 28.5749L34.0763 29.5485L33.1027 33.682C33.0712 33.8121 33.0481 33.9422 33.0293 34.0723C32.9915 34.3325 32.9768 34.5927 32.9831 34.8529C32.9831 34.855 32.9831 34.8571 32.9831 34.8592C32.9873 34.9914 32.9957 35.1214 33.0104 35.2515C33.0712 35.7719 33.2223 36.2818 33.4636 36.756C33.6965 37.2134 33.942 37.6624 34.198 38.1052C34.84 39.211 35.5514 40.2727 36.3298 41.2819C36.4851 41.4834 36.6446 41.6848 36.804 41.882C38.0903 43.4641 39.5444 44.9119 41.1411 46.1982C41.7203 46.664 42.377 47.0207 43.082 47.2494L44.4228 47.6858C44.6788 47.7698 44.939 47.8327 45.2034 47.8726C45.4677 47.9145 45.7321 47.9355 45.9986 47.9355C46.2651 47.9355 46.5295 47.9145 46.7938 47.8726C47.0582 47.8306 47.3184 47.7677 47.5744 47.6858L48.9152 47.2494C48.9634 47.2347 49.0075 47.2137 49.0558 47.1969C49.295 47.1109 49.5279 47.0144 49.7545 46.9011C50.1301 46.7143 50.4868 46.494 50.8162 46.2317C51.4184 45.7491 51.9996 45.2435 52.5598 44.7168C53.3068 44.0139 54.0139 43.2732 54.6812 42.4968C55.3484 41.7205 55.9737 40.9105 56.557 40.0691C56.9935 39.4376 57.4068 38.7892 57.7929 38.122C58.051 37.6792 58.2965 37.2281 58.5315 36.7686C58.8966 36.0552 59.0582 35.2599 59.0141 34.4668C58.9994 34.2024 58.9616 33.938 58.8987 33.6778L57.6943 28.5686C57.6712 28.4721 57.6439 28.3797 57.6125 28.2895C57.602 28.2601 57.5915 28.2329 57.5789 28.2035C57.5558 28.1426 57.5327 28.0818 57.5055 28.023C57.4908 27.9916 57.4761 27.9601 57.4593 27.9286C57.432 27.8741 57.4047 27.8216 57.3754 27.7691C57.3586 27.7377 57.3397 27.7083 57.3208 27.6789C57.2893 27.6265 57.2536 27.5761 57.2201 27.5278C57.2012 27.5027 57.1844 27.4754 57.1634 27.4502C57.1194 27.3915 57.0711 27.3348 57.0229 27.2782C57.0103 27.2656 56.9998 27.2509 56.9893 27.2383C56.9284 27.1711 56.8634 27.1061 56.7962 27.0452C56.7774 27.0285 56.7564 27.0117 56.7375 26.9949C56.6892 26.9529 56.6389 26.911 56.5864 26.8711C56.5591 26.8501 56.5319 26.8312 56.5046 26.8123C56.4563 26.7788 56.4081 26.7473 56.3598 26.7158C56.3304 26.6969 56.3011 26.6801 56.2696 26.6613C56.2192 26.6319 56.1668 26.6046 56.1143 26.5794C56.0849 26.5647 56.0556 26.5501 56.0262 26.5354C55.9653 26.5081 55.9045 26.4829 55.8436 26.4598C55.8206 26.4514 55.7975 26.4409 55.7744 26.4326C55.6884 26.4032 55.6023 26.3759 55.5142 26.3528C55.4953 26.3486 55.4764 26.3444 55.4576 26.3402C55.3862 26.3234 55.3149 26.3088 55.2435 26.2983C55.2121 26.2941 55.1806 26.2899 55.147 26.2857C55.0862 26.2773 55.0253 26.271 54.9644 26.2689C54.9288 26.2668 54.8952 26.2647 54.8595 26.2647C54.8323 26.2647 54.805 26.2605 54.7756 26.2605C54.7316 26.2605 54.6875 26.2626 54.6434 26.2647C54.6308 26.2647 54.6161 26.2647 54.6036 26.2668C54.5154 26.271 54.4252 26.2815 54.3371 26.2941C54.3161 26.2962 54.2972 26.3004 54.2762 26.3046C54.186 26.3192 54.0937 26.3381 54.0035 26.3633L47.9584 27.9706C47.7989 28.0125 47.6373 28.0503 47.4737 28.0818C47.1086 28.1531 46.7393 28.1993 46.37 28.2161C46.2462 28.2224 46.1224 28.2245 46.0007 28.2245C45.837 28.2245 45.6713 28.2182 45.5076 28.2077C45.1803 28.1909 44.8508 28.1489 44.5277 28.086ZM43.5017 31.1557C43.5017 31.1557 42.7295 31.6195 41.7307 31.8545C40.7068 32.0937 39.6514 31.588 39.1562 30.6605L38.8939 30.1717L43.5017 31.1557ZM45.5034 45.7093C44.8592 45.5813 44.257 45.2959 43.7472 44.8826L41.1159 42.7402C39.452 41.3848 38.3106 39.4942 37.8867 37.3897L36.825 32.1125C38.2434 35.0984 43.3212 36.2818 45.2495 36.6301L45.8916 45.789L45.5034 45.7093ZM53.1117 30.1717L52.8494 30.6605C52.3521 31.588 51.2988 32.0937 50.2748 31.8545C49.2761 31.6216 48.5039 31.1557 48.5039 31.1557L53.1117 30.1717ZM55.1764 32.1104L54.1168 37.3876C53.695 39.4921 52.5536 41.3827 50.8875 42.7381L48.2563 44.8805C47.7464 45.2959 47.1442 45.5792 46.5022 45.7072L46.1119 45.7848L46.754 36.6259C48.6823 36.2797 53.76 35.0963 55.1764 32.1104Z" fill="black"/>
</g>
<g id="Group_5">
<path id="Vector_12" d="M40.2202 47.3479C40.9399 47.927 41.7498 48.3656 42.629 48.653L43.9698 49.0895C44.6265 49.3035 45.3106 49.4126 46.003 49.4126C46.6933 49.4126 47.3774 49.3035 48.0362 49.0895L49.377 48.653C50.252 48.3677 51.0472 47.9417 51.7417 47.3836C55.1367 44.6622 57.8644 41.3175 59.8473 37.4441C60.4915 36.1873 60.6635 34.7332 60.3383 33.3441L59.1339 28.2349C58.6555 26.2059 56.8657 24.7874 54.7821 24.7874C54.3939 24.7874 54.0078 24.8378 53.6302 24.9385L47.5851 26.5458C47.3354 26.6129 47.0794 26.6633 46.8234 26.6969L46.4793 16.6273L46.3702 13.4694L46.1268 6.39619C46.1226 6.39619 46.1184 6.39619 46.1163 6.39619C46.0785 6.39409 46.0429 6.38989 46.0051 6.38989C45.9652 6.38989 45.9254 6.39409 45.8855 6.39619C45.8834 6.39619 45.8834 6.39619 45.8813 6.39619L45.6379 13.4778L45.5309 16.6273L45.1868 26.6969C44.9308 26.6633 44.6748 26.6129 44.4251 26.5458L38.38 24.9385C38.0023 24.8378 37.6163 24.7874 37.2281 24.7874C35.1445 24.7874 33.3547 26.2059 32.8763 28.2349L31.6719 33.3441C31.3446 34.7311 31.5166 36.181 32.1545 37.4274C34.1268 41.2923 36.8399 44.6286 40.2202 47.3479ZM32.9833 34.857C32.977 34.5968 32.9917 34.3345 33.0295 34.0764C33.0483 33.9463 33.0735 33.8162 33.1029 33.6862L34.0765 29.5526L34.3052 28.579C34.3283 28.4825 34.3555 28.3902 34.387 28.2999C34.3975 28.2705 34.408 28.2433 34.4206 28.2139C34.4437 28.153 34.4668 28.0922 34.494 28.0334C34.5087 28.002 34.5234 27.9705 34.5402 27.939C34.5675 27.8845 34.5947 27.832 34.6241 27.7796C34.6409 27.7481 34.6598 27.7187 34.6766 27.6893C34.7081 27.6369 34.7437 27.5865 34.7794 27.5362C34.7983 27.511 34.8151 27.4837 34.834 27.4585C34.8801 27.3977 34.9284 27.341 34.9787 27.2844C34.9892 27.2718 34.9997 27.2592 35.0102 27.2466C35.071 27.1795 35.1361 27.1144 35.2053 27.0536C35.2242 27.0368 35.2431 27.0221 35.262 27.0053C35.3124 26.9612 35.3648 26.9193 35.4173 26.8794C35.4425 26.8605 35.4697 26.8416 35.497 26.8227C35.5453 26.7892 35.5956 26.7556 35.646 26.7241C35.6754 26.7052 35.7026 26.6885 35.732 26.6717C35.7845 26.6423 35.8369 26.615 35.8894 26.5877C35.9188 26.5731 35.946 26.5584 35.9754 26.5458C36.0362 26.5185 36.0992 26.4912 36.1621 26.4681C36.1831 26.4597 36.2062 26.4493 36.2272 26.443C36.3132 26.4115 36.4014 26.3863 36.4895 26.3632C36.5063 26.359 36.5252 26.3569 36.5419 26.3527C36.6133 26.336 36.6867 26.3213 36.7602 26.3087C36.7916 26.3045 36.8231 26.3003 36.8546 26.2961C36.9154 26.2877 36.9763 26.2814 37.0371 26.2772C37.0728 26.2751 37.1064 26.273 37.142 26.273C37.1693 26.273 37.1966 26.2688 37.226 26.2688C37.27 26.2688 37.3141 26.2709 37.3582 26.273C37.3708 26.273 37.3854 26.273 37.398 26.2751C37.4861 26.2793 37.5743 26.2898 37.6645 26.3024C37.6855 26.3045 37.7044 26.3087 37.7254 26.3129C37.8156 26.3276 37.9079 26.3464 37.9981 26.3716L44.0432 27.9789C44.2027 28.0209 44.3642 28.0586 44.5279 28.0901C44.8531 28.1551 45.1805 28.1971 45.5099 28.2181C45.6736 28.2286 45.8393 28.2349 46.003 28.2349C46.1268 28.2349 46.2506 28.2328 46.3723 28.2265C46.7416 28.2076 47.1109 28.1635 47.476 28.0922C47.6375 28.0607 47.7991 28.023 47.9607 27.981L54.0058 26.3737C54.096 26.3485 54.1883 26.3318 54.2785 26.315C54.2995 26.3108 54.3184 26.3087 54.3394 26.3045C54.4275 26.2919 54.5177 26.2814 54.6059 26.2772C54.6184 26.2772 54.6331 26.2772 54.6457 26.2751C54.6898 26.273 54.7339 26.2709 54.7779 26.2709C54.8052 26.2709 54.8325 26.273 54.8618 26.2751C54.8975 26.2751 54.9332 26.2772 54.9667 26.2793C55.0276 26.2835 55.0884 26.2898 55.1493 26.2961C55.1808 26.3003 55.2144 26.3024 55.2458 26.3087C55.3172 26.3192 55.3885 26.3339 55.4599 26.3506C55.4787 26.3548 55.4976 26.3569 55.5165 26.3632C55.6046 26.3863 55.6928 26.4136 55.7767 26.443C55.7998 26.4514 55.8228 26.4618 55.8459 26.4702C55.9068 26.4933 55.9697 26.5185 56.0285 26.5458C56.0579 26.5605 56.0872 26.5752 56.1166 26.5898C56.1691 26.615 56.2194 26.6423 56.2719 26.6717C56.3013 26.6885 56.3327 26.7073 56.3621 26.7262C56.4104 26.7577 56.4586 26.7892 56.5069 26.8227C56.5342 26.8416 56.5614 26.8605 56.5887 26.8815C56.6412 26.9214 56.6915 26.9633 56.7398 27.0053C56.7587 27.0221 56.7797 27.0389 56.7985 27.0557C56.8657 27.1165 56.9307 27.1816 56.9916 27.2487C57.0042 27.2613 57.0147 27.276 57.0252 27.2886C57.0734 27.3431 57.1217 27.3998 57.1657 27.4606C57.1846 27.4858 57.2035 27.5131 57.2224 27.5383C57.258 27.5886 57.2916 27.639 57.3231 27.6893C57.342 27.7187 57.3588 27.7502 57.3776 27.7796C57.407 27.832 57.4343 27.8845 57.4616 27.939C57.4763 27.9705 57.4931 28.002 57.5078 28.0334C57.535 28.0922 57.5581 28.153 57.5812 28.2139C57.5917 28.2433 57.6043 28.2705 57.6147 28.2999C57.6462 28.3902 57.6735 28.4846 57.6966 28.579L58.901 33.6883C58.9618 33.9484 58.9996 34.2128 59.0164 34.4772C59.0626 35.2703 58.8989 36.0656 58.5338 36.779C58.2988 37.2364 58.0533 37.6875 57.7952 38.1324C57.4091 38.7975 56.9958 39.448 56.5593 40.0796C55.976 40.921 55.3507 41.733 54.6835 42.5072C54.0162 43.2836 53.307 44.0243 52.5621 44.7272C52.0019 45.2539 51.4207 45.7595 50.8185 46.2421C50.4912 46.5044 50.1324 46.7247 49.7568 46.9115C49.5302 47.0248 49.2973 47.1213 49.0581 47.2073C49.0119 47.2241 48.9657 47.2451 48.9175 47.2598L47.5767 47.6962C47.3207 47.7802 47.0605 47.8431 46.7961 47.883C46.5318 47.9249 46.2674 47.9459 46.0009 47.9459C45.7344 47.9459 45.47 47.9249 45.2057 47.883C44.9413 47.841 44.6811 47.7781 44.4251 47.6962L43.0843 47.2598C42.3793 47.029 41.7204 46.6744 41.1434 46.2086C39.5466 44.9223 38.0926 43.4745 36.8063 41.8924C36.6448 41.6952 36.4874 41.4938 36.3321 41.2923C35.5537 40.2831 34.8423 39.2214 34.2003 38.1156C33.9443 37.6728 33.6988 37.2238 33.4659 36.7664C33.2246 36.2922 33.0735 35.7823 33.0127 35.2619C32.998 35.1319 32.9875 35.0018 32.9854 34.8696C32.9833 34.8612 32.9833 34.8591 32.9833 34.857Z" fill="#EAFC52"/>
<path id="Vector_13" d="M48.257 44.883L50.8882 42.7407C52.5521 41.3852 53.6936 39.4947 54.1174 37.3902L55.177 32.113C53.7586 35.0989 48.6829 36.2823 46.7546 36.6306L46.1125 45.7895L46.5028 45.7119C47.1449 45.5797 47.7492 45.2964 48.257 44.883Z" fill="#EAFC52"/>
<path id="Vector_14" d="M41.1165 42.7414L43.7477 44.8837C44.2576 45.297 44.8598 45.5824 45.5039 45.7104L45.8942 45.788L45.2522 36.6291C43.3239 36.2808 38.2461 35.0995 36.8276 32.1116L37.8894 37.3887C38.309 39.4932 39.4504 41.3859 41.1165 42.7414Z" fill="#EAFC52"/>
<path id="Vector_15" d="M41.7292 31.8542C42.728 31.6213 43.5001 31.1555 43.5001 31.1555L38.8923 30.1714L39.1546 30.6603C39.6498 31.5877 40.7031 32.0955 41.7292 31.8542Z" fill="#EAFC52"/>
<path id="Vector_16" d="M52.8465 30.6603L53.1087 30.1714L48.501 31.1555C48.501 31.1555 49.2731 31.6192 50.2719 31.8542C51.2958 32.0934 52.3492 31.5877 52.8465 30.6603Z" fill="#EAFC52"/>
<path id="Vector_17" d="M56.1577 57.425L69.3662 42.1517L68.7451 41.7426C68.5374 41.6062 68.3465 41.4509 68.1618 41.2894L54.7519 56.7955L46.7722 59.498L46.833 56.6864L51.9129 55.0455C52.9704 54.7035 53.9146 54.0824 54.649 53.2473L54.6742 53.218L66.8043 39.3946C66.693 39.126 66.5986 38.8512 66.5336 38.5637L66.4769 38.3203C66.4287 38.1147 66.3762 37.9111 66.3216 37.7097L53.8097 51.9674C53.0774 52.8025 52.1311 53.4236 51.0736 53.7656L46 55.4043L40.9264 53.7656C39.8689 53.4236 38.9247 52.8025 38.1903 51.9674L25.6784 37.7097C25.6217 37.9111 25.5693 38.1147 25.5231 38.3203L25.4664 38.5637C25.4014 38.8491 25.307 39.126 25.1958 39.3946L37.288 53.1739L37.351 53.2473C38.0833 54.0824 39.0296 54.7035 40.0871 55.0455L40.1794 55.0749L45.167 56.6864L45.2279 59.498L37.2482 56.7955L23.8382 41.2894C23.6535 41.4509 23.4626 41.6062 23.2549 41.7426L22.6338 42.1517L35.8423 57.425L28.4124 65.8327L26.4421 67.91C26.8093 68.2373 27.1849 68.5562 27.5689 68.8647L28.3578 68.0359L29.4468 66.8902L33.1608 62.6874L45.4272 68.615L45.5741 75.3651L45.5804 75.6127V75.6148C45.7209 75.619 45.8615 75.6232 46 75.6232C46.1406 75.6232 46.2812 75.6169 46.4197 75.6148V75.6127L46.426 75.3651L46.5728 68.615L58.8372 62.6874L62.5511 66.8902L63.6317 68.0443L64.4143 68.8794C64.7983 68.5688 65.176 68.252 65.5432 67.9226L63.5876 65.8348L56.1577 57.425ZM34.1763 61.5376L37.0509 58.2832L45.2635 61.0634L45.3915 66.9574L34.1763 61.5376ZM46.6106 66.9574L46.7386 61.0654L54.9491 58.2853L57.8237 61.5397L46.6106 66.9574Z" fill="#EAFC52"/>
</g>
</g>
</g>
</g>
</g>
</g>
</svg>
